<?xml version="1.0" encoding="utf-8"?>
<!-- Generator: Adobe Illustrator 24.3.0, SVG Export Plug-In . SVG Version: 6.00 Build 0)  -->
<svg version="1.0" id="Ebene_1" xmlns="http://www.w3.org/2000/svg" xmlns:xlink="http://www.w3.org/1999/xlink" x="0px" y="0px"
	 viewBox="0 0 3936 3083.22" style="enable-background:new 0 0 3936 3083.22;" xml:space="preserve">
<style type="text/css">
	.st0{enable-background:new    ;}
	.st1{fill-rule:evenodd;clip-rule:evenodd;}
</style>
<g id="Doctor_Who_Logo_00000149375553039593425950000010469805963656167594_" class="st0">
	<g id="Doctor_Who_Logo">
		<g>
			<path class="st1" d="M2623,2165.71c-30.3,30.3-60.4,60.4-90.4,90.4c-68.8-33.2-139.7-31.9-210.6,5.5
				c47.3-47.3,100-100.8,148-148.8c-9.2-5.6-17.3-10.6-25.6-15.6c-79.2,79.2-157.8,157.8-237,237c-18.6-25.3-39.7-46.4-64.6-63.5
				c-24.9-17.1-52.1-29-82.9-37.3c29.7-29.8,89.1-88.7,89.1-88.7h-40c0,0-55.6,55.5-83,83c-17.3,0-36.8-0.9-55.5-0.9
				c-26.4-26.7-80.5-81.1-80.5-81.1h-40c0,0,57.4,58.6,86.8,88c-61.5,16.5-109.4,50-146.5,100.5c-74.7-74.7-148.8-148.8-224-224
				c-3.7,11-6.9,20.7-10.3,30.8c38.5,38.6,81.7,81.4,120,119.7c-71-38.8-147.2-37.7-217.6-1c-61.3-61.3-122.2-122.2-183.9-183.9
				c-4.4,10.5-8.2,19.6-12.1,28.8c57.5,57.4,114.3,114.1,171.6,171.3c-5,4.3-9.3,7.9-13.4,11.7c-4.4,4-9.1,9.6-12.6,13.1
				c197.7,197.7,396.3,397.3,592,593c196.1-196.1,394.3-395.3,592-593c-9.5-8.5-22.4-19.4-33.4-29.3
				c33.3-33.4,66.6-66.6,101.3-101.3C2646,2168.41,2634.6,2167.11,2623,2165.71z M1990,2255.81c92.1-3.2,161.7,41,209,118.8
				c-67.2,67.2-134,135-199,200c-65.6-65.6-131.7-133.7-199-201C1842.9,2302.61,1905.2,2258.81,1990,2255.81z M2000,2852.61
				c-183.3-183.3-366.7-368.5-549.8-551.7c2.4-1.8,5.2-4.1,8.2-6.2c72.7-50.9,171.9-44,236.8,16.6c4.1,3.9,8.1,7.9,12.1,11.9
				c94.5,94.5,188.9,188.9,283.4,283.4c2.5,2.5,5.2,5,8.2,7.9c3.3-3.2,6.1-5.9,8.9-8.7c96.1-96.1,192.3-192.2,288.4-288.4
				c28.1-28.1,61.5-46.6,100.7-53.5c53.2-9.3,101.9,1.8,145.9,33.1c1.6,1.1,5.7,3.3,7.2,4.5
				C2546.1,2308.31,2013.3,2842.01,2000,2852.61z M1180.7,1373.81l10.3,30.8l68-67l14.9-28.7c0,0-88.6-144.1-133-216.2
				c4.1-2.5,6.9-4.2,9.8-5.8c91.8-52.4,187-98,285.3-137c138.6-54.9,280.9-96.3,429.4-113.9c68-8.1,136.2-10.1,204.5-5.5
				c77,5.1,152.8,17.4,227.7,35.7c193,47,373.9,123.8,546.1,222c2.5,1.4,4.8,3.2,6.9,4.6c-0.1,1.1-0.2,1.7-0.2,1.7l-121.4,209.1
				l73.2,11.1l-29.9-30.7c0,0,79.4-134.1,119.2-201.2c-4.3-2.7-7.6-4.9-11-6.9c-48-28.9-97.3-55.3-147.6-80
				c-147.9-72.6-301.1-130.6-462.4-165.9c-6.9-1.5-12.1-4.6-16.9-9.4c-83.8-84-167.7-167.9-251.6-251.8c-2.5-2.5-5.2-4.9-7.6-7.3
				c-90,90-179.5,179.5-268.1,268.1c-112.6,24.6-219.1,59.4-323.1,102c-104.4,43-205.3,92.4-302.7,151
				c47.5,77.2,141.4,229.9,141.4,229.9L1180.7,1373.81z M1779.2,816.91l215-215.1c0,0,144.3,144.3,215.8,215.8
				c-142.1-25.6-288.4-24.7-430.2,1.8c-1.7,0.2-3.9,1.2-3.9,1.2L1779.2,816.91z M2264.2,1292.21c66.5,19.6,130.9,44.7,193.6,73.3
				c10.3-5.8,19.9-11.2,30.8-17.3c-3-1.6-4.4-2.5-5.9-3.2c-78.5-36.9-159.3-67.7-243.2-90.1c-71.4-19-143.8-31.1-217.7-33.6
				c-57.8-2-115.2,2.9-172.2,12.1c-105,17.1-205.9,48.5-304.1,89.1c-1.8,0.7-3.4,2.1-6.8,4.3c24,0,45.7,0.2,67.3-0.1
				c5.5-0.1,11.3-1.1,16.5-2.9c65.6-23.5,132.3-43.3,200.9-55.8c33.7-6.2,67.8-9.9,101.8-14.5c3.6-0.5,7.4-0.9,13.9-0.8
				c-49.3,49.9-73,74-73,74l40.7-0.1c0,0,50.3-50.5,75.5-75.8c11.1,0,21.7,0,34.1,0c24.7,24.8,50.1,50.2,75.3,75.5
				c12.6,0,25.1,0,39.8,0c-24.7-24.8-48.1-48.1-71.4-71.4c0.4-0.6-1.3-1.6-0.9-2.2C2128.1,1258.21,2197.7,1272.71,2264.2,1292.21z
				 M871.6,1703.71l19.1-19.5l-9.7-28.6l-49,48l100,101l-21-61L871.6,1703.71z M3115,1626.61l11,51c0,0,17.2,18.8,24.5,26.1
				c-7.7,7.9-13.8,15.2-21.2,22.8c0,13-0.3,30-0.3,41.1c19.8-19.8,44.7-44.7,64-64C3169.6,1680.21,3115,1626.61,3115,1626.61z
				 M1404.6,1420.61l13.4-39l-44.2,22.7l14.2,25.5L1404.6,1420.61z M2726.1,1337.21c-168.2-12.1-297.2,59.1-394.2,196.8
				c0-57.7,0-174,0-174h-306.1v222.6h-61.9v-222.6h-504l-56.7,175l-102.1-204.5l-103.3,205.6l-54.9-175H817.5l253.5,752.2h153
				l76.8-182.9l77.9,182.4h153l126.9-383.5l-0.2,383.6h307.8v-229.7h61.8v228.8h306.1c0,0,0-118.2,0-176
				c71.3,108,167.9,177.8,295.3,197.5c129,19.9,244.2-15.4,339.5-105.4c156.1-147.5,170.6-381.8,35.2-544.5
				C2931.8,1396.41,2838.7,1345.31,2726.1,1337.21z M2289.6,2070.91h-220.7v-231.5h-147.1v231.6h-220.4l-0.1-597.1l-202.1,598h-90.4
				l-109.8-257.1l-105.5,257.5h-90.2l-225.1-668.7h232.3l76.6,253.5l113.9-228.9l110,223.8l80.6-247.4h429.2v219.6h147.6v-220.6
				h221.2V2070.91z M2697.8,2094.51c-203.8,0.5-363.7-157.4-366.3-357c-2.6-203.6,169.8-362.6,361.1-357
				c192.1-4,358.9,158.2,359.4,352.5C3052.5,1929.91,2892,2094.11,2697.8,2094.51z M1419.9,1738.11c-41-82.3-78.9-158.4-119.4-239.8
				c-40.6,82.7-77.2,157.5-117.5,239.6c-33.6-106.2-65-205.4-96-303.6c-56.1,0-107.6,0-165.7,0c68.8,204.4,136.2,404.4,203.5,604.3
				c17.9,0,32.7,0,49.4,0c41.7-99.7,82.9-198.3,126.7-303.3c44.2,105,86.3,204.9,128.3,304.7c16.6,0,29.9,0,47.7,0
				c67.5-200.1,135.1-400.6,203.9-604.6c-57,0-110.5,0-166.7,0C1483.4,1534.11,1452.7,1632.61,1419.9,1738.11z M1887.8,1435.11
				h-154.4v602.5H1890v-228.8h212v229.5h155.5v-603.1h-156.6v219.5h-213.1V1435.11z M2692.3,1411.61
				c-178.3-4.4-322.7,140-329.9,306.2c-8.4,193.6,144.3,337,311.1,345.3c187.4,9.3,346.8-136.2,348.1-327.1
				C3022.9,1557.01,2868.9,1407.61,2692.3,1411.61z M2693.5,1903.21c-89.9,1.8-174-80.5-168-169.8c-3.8-78.1,60.2-162.3,164-165.5
				c90.1-2.8,168.8,75.9,168.6,165.4C2857.9,1830.11,2787.5,1901.31,2693.5,1903.21z M2690.3,1599.01
				c-79.1,0.5-138.1,71-134.6,139.3c3.8,74.6,62.2,133.5,138.2,133c70.7,4.5,133.3-58.8,132.8-136.7
				C2826.2,1659.41,2765.3,1598.51,2690.3,1599.01z M2692.1,1830.01c-49.1-0.4-93.7-46-93.7-95.7c0-50.1,42.1-90.5,93.8-90.3
				c52.2,0.2,90.2,39.4,89.7,92.6C2781.5,1789.51,2742.1,1830.41,2692.1,1830.01z M1490,1116.61c-54-95.8-156.5-45.5-156.5-45.5
				l-81,43l112.5,203.5l80.5-41.5C1445.5,1276.11,1544,1212.41,1490,1116.61z M1394,1240.61l-63-113c0,0,65.7-51,102,19
				C1469.6,1217.01,1394,1240.61,1394,1240.61z M1925.5,971.11c15.7,0,30.2,5.4,41.4,14.3l37.5-49.8c-21.9-16.3-49.4-26-79.3-26
				c-71.2,0-129,55.1-129,123s57.8,123,129,123c33.2,0,63.5-12,86.4-31.6l-37.8-50.3c-11.8,12.6-28.9,20.5-48,20.5
				c-35.6,0-64.5-27.5-64.5-61.5S1889.9,971.11,1925.5,971.11z M2673,1162.61c26.9-63.5-36-98-36-98l-86-42l-105,207l56,27l41-80
				l12,105l64,29l-24-108C2595,1202.61,2652.6,1210.81,2673,1162.61z M2560,1142.61l24-51c0,0,42.7,13.2,28,44
				S2560,1142.61,2560,1142.61z M1676.8,1198.41c68.8-18.4,110.4-86.6,92.8-152.2c-17.6-65.6-87.6-103.9-156.4-85.4
				c-68.8,18.4-110.4,86.6-92.8,152.2S1608,1216.81,1676.8,1198.41z M1629.7,1020.51c34.4-9.2,69.4,9.9,78.2,42.7
				c8.8,32.8-12,66.9-46.4,76.1c-34.4,9.2-69.4-9.9-78.2-42.7C1574.5,1063.81,1595.3,1029.81,1629.7,1020.51z M2024.5,969.11
				l65.3,5.4l-14.7,176.5l55.8,4.4l14.6-176.3l65.3,5.4l4.4-52.8l-186.4-15.5L2024.5,969.11z M2305.2,1198.41
				c68.8,18.4,138.9-19.8,156.4-85.4c17.6-65.6-24-133.8-92.8-152.2c-68.8-18.4-138.9,19.8-156.4,85.4
				C2194.8,1111.81,2236.3,1180.01,2305.2,1198.41z M2275.1,1063.51c8.8-32.8,43.8-51.9,78.2-42.7c34.4,9.2,55.2,43.3,46.4,76.1
				s-43.8,51.9-78.2,42.7C2287,1130.41,2266.3,1096.31,2275.1,1063.51z"/>
		</g>
	</g>
</g>
<g id="BBC_00000005266088890613378730000012275264498982837688_" class="st0">
	<g id="BBC">
		<g>
			<path class="st1" d="M1575,441.61h240v-240h-240V441.61z M1642.3,255.41h51.1c15.1,0,26.7,3,35,8.9c8.3,5.8,12.4,14.2,12.4,25.2
				c0,6.3-1.5,11.8-4.4,16.5c-3,4.6-7.3,8.2-13.1,10.9c8,2.6,14.1,6.7,18.3,12.4c4.3,5.6,6.5,12.3,6.5,20.4c0,7.9-2.1,14.7-6.3,20.4
				c-4.1,5.7-9.9,10.1-17.6,13.1c-7.6,3.1-16.8,4.6-27.6,4.6h-54.2v-132.4H1642.3z M1719.6,348.71c0-12.1-8.5-18.1-25.4-18.1h-24.4
				v35.7h24.1c8.3,0,14.6-1.5,19.1-4.4C1717.4,358.81,1719.6,354.41,1719.6,348.71z M1707.1,305.41c3.8-3.1,5.7-7.3,5.7-12.8
				c0-10.5-7.3-15.7-22-15.7h-20.9v32.9h20.9C1697.9,309.81,1703.3,308.41,1707.1,305.41z M2175,201.61v240h240v-240H2175z
				 M2345,380.51c-5.4,3.1-11.7,5.5-18.9,7.2c-7.2,1.9-14.7,2.8-22.6,2.8c-10.5,0-19.9-1.5-28.3-4.6c-8.4-3.2-15.5-7.8-21.3-13.7
				c-5.8-5.9-10.2-13.1-13.3-21.7c-3.1-8.6-4.6-18.3-4.6-29.1c0-10.5,1.6-19.9,4.8-28.3c3.2-8.5,7.8-15.8,13.9-21.8
				c6-6,13.3-10.7,21.7-13.9c8.5-3.2,18-4.8,28.5-4.8c7.3,0,14.1,0.8,20.5,2.4c6.5,1.5,12.6,3.7,18.1,6.7v26.3
				c-5.1-3.5-10.5-6-16.5-7.8c-5.9-1.9-12.2-2.8-18.7-2.8c-9,0-16.7,1.7-23.1,5.2c-6.3,3.5-11.2,8.5-14.6,15c-3.3,6.5-5,14.5-5,23.9
				s1.6,17.4,4.8,24.1c3.3,6.5,8.1,11.5,14.3,15c6.3,3.5,13.9,5.2,22.8,5.2c13.6,0,26.1-3.6,37.6-10.9v25.6L2345,380.51L2345,380.51
				z M2007.1,305.41c3.8-3.1,5.7-7.3,5.7-12.8c0-10.5-7.3-15.7-22-15.7h-20.9v32.9h20.9C1997.9,309.81,2003.3,308.41,2007.1,305.41z
				 M1875,441.61h240v-240h-240V441.61z M1942.3,255.41h51.1c15.1,0,26.7,3,35,8.9c8.3,5.8,12.4,14.2,12.4,25.2
				c0,6.3-1.5,11.8-4.4,16.5c-3,4.6-7.3,8.2-13.1,10.9c8,2.6,14.1,6.7,18.3,12.4c4.3,5.6,6.5,12.3,6.5,20.4c0,7.9-2.1,14.7-6.3,20.4
				c-4.1,5.7-9.9,10.1-17.6,13.1c-7.6,3.1-16.8,4.6-27.6,4.6h-54.2v-132.4H1942.3z M2019.6,348.71c0-12.1-8.5-18.1-25.4-18.1h-24.4
				v35.7h24.1c8.3,0,14.6-1.5,19.1-4.4C2017.4,358.81,2019.6,354.41,2019.6,348.71z"/>
		</g>
	</g>
</g>
</svg>
